Coordinates
version=1
nRows=19
nColumns=24
inDegrees=yes

Units are S.I. units (second, meters, Newtons, ...)
Angles are in degrees.

endheader
time	pelvis_tilt	pelvis_list	pelvis_rotation	pelvis_tx	pelvis_ty	pelvis_tz	hip_flexion_r	hip_adduction_r	hip_rotation_r	knee_angle_r	ankle_angle_r	subtalar_angle_r	mtp_angle_r	hip_flexion_l	hip_adduction_l	hip_rotation_l	knee_angle_l	ankle_angle_l	subtalar_angle_l	mtp_angle_l	lumbar_extension	lumbar_bending	lumbar_rotation
      3.61000000	    -15.39569124	      9.53195758	     -8.56604275	     -0.73261498	     -0.01058735	     -0.00181596	     22.99385063	    -14.47216580	     -0.36861047	    -59.09326709	    -19.70449601	     15.18604896	     42.02971254	     23.19648275	      9.85440461	    -17.05029555	     -7.60103645	     -8.84189523	      4.62007649	      9.44960314	     14.49507120	    -10.63212825	      4.35477379
      3.61500000	    -15.36860394	      9.37080435	     -8.38339428	     -0.72704946	     -0.00997867	     -0.00256013	     23.51980112	    -14.24352560	     -0.24694280	    -59.45784373	    -19.10411110	     15.19820035	     42.17762397	     22.63415452	      9.92320307	    -16.80708377	     -7.30022022	     -8.65709143	      4.73584240	      9.41485433	     14.42184096	    -10.49477623	      4.10334414
      3.62000000	    -15.25306532	      9.13929244	     -8.07852917	     -0.72138280	     -0.00925616	     -0.00354824	     23.85520808	    -14.03753302	     -0.30805043	    -59.71757944	    -18.55600932	     15.26092588	     42.37820963	     21.94461397	      9.99817475	    -16.31583170	     -7.00314402	     -8.40988381	      4.78352400	      9.15643374	     14.22608392	    -10.33531664	      3.63544047
      3.62500000	    -15.22027318	      8.98492943	     -7.91160761	     -0.71587356	     -0.00871820	     -0.00429728	     24.38256646	    -13.81428214	     -0.20108278	    -60.01182802	    -17.94163653	     15.15063252	     42.48353329	     21.37520179	     10.06205007	    -16.07122633	     -6.68875586	     -8.25043694	      4.84189948	      9.11747275	     14.15284019	    -10.19879515	      3.41662884
      3.63000000	    -15.09950692	      8.74612826	     -7.61007722	     -0.71027477	     -0.00804029	     -0.00527851	     24.71362291	    -13.59499174	     -0.30019815	    -60.20519351	    -17.39031273	     14.94943771	     42.52235096	     20.67512927	     10.11475528	    -15.56232223	     -6.37153868	     -8.05209675	      4.82487983	      8.90874883	     13.95051155	    -10.02144775	      2.96888369
      3.63500000	    -15.01264093	      8.55097888	     -7.38106058	     -0.70476007	     -0.00746848	     -0.00615617	     25.13024850	    -13.37482787	     -0.30422435	    -60.39139678	    -16.79008891	     14.73698690	     42.49270926	     20.03015949	     10.16612429	    -15.18188262	     -6.05269217	     -7.87763848	      4.82821374	      8.75825384	     13.80391348	     -9.86037540	      2.65098003
      3.64000000	    -14.94199209	      8.35310011	     -7.14413585	     -0.69927940	     -0.00694108	     -0.00703200	     25.56061737	    -13.14911356	     -0.32412679	    -60.54134250	    -16.18494851	     14.47202699	     42.38553323	     19.40976286	     10.20337278	    -14.82997846	     -5.74156332	     -7.71194959	      4.87168378	      8.66969300	     13.67308773	     -9.69564820	      2.32481944
      3.64500000	    -14.82746779	      8.13981572	     -6.90453231	     -0.69380718	     -0.00638628	     -0.00794140	     25.92674687	    -12.91689057	     -0.35326818	    -60.64658690	    -15.54268964	     14.27530787	     42.04840082	     18.73710426	     10.23032395	    -14.42555881	     -5.42989310	     -7.53715839	      4.86965230	      8.52179008	     13.49156204	     -9.51631455	      1.99433376
      3.65000000	    -14.76913459	      7.93327538	     -6.67078388	     -0.68840769	     -0.00592275	     -0.00880730	     26.36692173	    -12.67160211	     -0.39444637	    -60.72325603	    -14.92828322	     13.88380465	     41.76428214	     18.14951424	     10.23737974	    -14.11788357	     -5.14403647	     -7.37852950	      4.92827324	      8.48625322	     13.37065309	     -9.33580157	      1.66709575
      3.65500000	    -14.66931906	      7.71666447	     -6.42610020	     -0.68297999	     -0.00543199	     -0.00968965	     26.74076936	    -12.43036396	     -0.45967305	    -60.75003832	    -14.30010902	     13.54690457	     41.30004775	     17.50525022	     10.23823250	    -13.74129358	     -4.84692608	     -7.22119666	      4.96944698	      8.42753914	     13.20782112	     -9.15208504	      1.34826519
      3.66000000	    -14.62949078	      7.54373280	     -6.21679903	     -0.67762236	     -0.00505318	     -0.01049756	     27.21633624	    -12.20190576	     -0.49052149	    -60.75183083	    -13.73619112	     13.01928704	     41.04533644	     16.94972519	     10.25209095	    -13.46744865	     -4.56328819	     -7.08948850	      5.04458664	      8.41943041	     13.12440238	     -8.99601613	      1.07988782
      3.66500000	    -14.57131376	      7.33311552	     -5.98850631	     -0.67229091	     -0.00468793	     -0.01134728	     27.64501253	    -11.95162234	     -0.57224029	    -60.69807281	    -13.16756017	     12.50946581	     40.75307259	     16.38583893	     10.22787631	    -13.14442713	     -4.31538561	     -6.90703821	      5.10239305	      8.42877026	     13.00677156	     -8.80480523	      0.81866398
      3.67000000	    -14.41349863	      7.09480463	     -5.72498085	     -0.66690276	     -0.00418298	     -0.01227752	     27.91968832	    -11.70706843	     -0.69214194	    -60.59077424	    -12.54604034	     12.21128016	     39.91240655	     15.69324993	     10.19969771	    -12.72324381	     -4.04669491	     -6.76487975	      5.10531156	      8.33748203	     12.77844955	     -8.59897356	      0.45477970
      3.67500000	    -14.40549524	      6.92035879	     -5.54670434	     -0.66169093	     -0.00394666	     -0.01303240	     28.43639103	    -11.45244435	     -0.72687788	    -60.47511770	    -12.04836701	     11.58078773	     39.66926513	     15.22275146	     10.17326575	    -12.49138859	     -3.83762823	     -6.59770352	      5.15788598	      8.36173559	     12.72619716	     -8.42420387	      0.25234549
      3.68000000	    -14.29223778	      6.67528941	     -5.27678703	     -0.65642568	     -0.00355374	     -0.01394166	     28.75537657	    -11.19521482	     -0.88242565	    -60.27821390	    -11.50152577	     11.15963662	     39.01020836	     14.62731458	     10.10965781	    -12.12117963	     -3.64424732	     -6.42770996	      5.20024926	      8.34992129	     12.53485011	     -8.20956544	     -0.12713468
      3.68500000	    -14.28247644	      6.48977075	     -5.10148554	     -0.65120013	     -0.00333213	     -0.01468372	     29.24158138	    -10.93190495	     -0.94799524	    -60.05576948	    -11.05692558	     10.54058902	     38.69814362	     14.16098865	     10.05954597	    -11.88639655	     -3.44570401	     -6.27895870	      5.24761587	      8.36455871	     12.49088158	     -8.01645282	     -0.32752227
      3.69000000	    -14.25031540	      6.28575635	     -4.88760558	     -0.64602401	     -0.00313336	     -0.01548433	     29.67697972	    -10.68037585	     -1.07182338	    -59.78289728	    -10.60146656	      9.97832570	     38.37946121	     13.69140307	      9.99305917	    -11.58579920	     -3.29575280	     -6.08254657	      5.30884843	      8.40868475	     12.40632459	     -7.81563685	     -0.55112650
      3.69500000	    -14.11536340	      6.06284909	     -4.62490753	     -0.64086470	     -0.00282288	     -0.01633345	     29.95975613	    -10.45368938	     -1.25648069	    -59.46784453	    -10.06614208	      9.63599744	     37.57814055	     13.10701287	      9.92760967	    -11.22912683	     -3.14524564	     -5.90806043	      5.34381080	      8.39412652	     12.19400583	     -7.62724044	     -0.91762174
      3.70000000	    -14.13680521	      5.87932702	     -4.47200170	     -0.63573502	     -0.00273617	     -0.01703704	     30.45921237	    -10.18656552	     -1.34174259	    -59.10570428	     -9.65904329	      9.07938504	     37.30359176	     12.71523328	      9.85014720	    -11.00903583	     -3.00956568	     -5.72248857	      5.38357286	      8.42797175	     12.18659750	     -7.42132049	     -1.04977165
